# xmcd
# 
# Track frame offsets:
#     150
#     23038
#     40611
# 
# Disc length: 886
# 
# Revision: 0
# Processed by: cddbd v1.5.2PL0 Copyright (c) Steve Scherf et al.
# Submitted via: fre:ac v1.0.17
# 
DISCID=16037403
DTITLE=Keane - The Night Sky (Single)
DYEAR=2007
DGENRE=Pop
TTITLE0=The Night Sky
TTITLE1=Under Pressure
TTITLE2=Put It Behind You (Ffrisco Mix)
EXTD=
EXTT0=
EXTT1=
EXTT2=
PLAYORDER=
